<?xml version="1.0" encoding="UTF-8" standalone="no"?>
<svg width="742px" height="450px" viewBox="0 0 742 450" version="1.1" xmlns="http://www.w3.org/2000/svg" xmlns:xlink="http://www.w3.org/1999/xlink" xmlns:sketch="http://www.bohemiancoding.com/sketch/ns">
    <!-- Generator: Sketch 3.0.4 (8054) - http://www.bohemiancoding.com/sketch -->
    <title>Slice 1</title>
    <desc>Created with Sketch.</desc>
    <defs></defs>
    <g id="Page-1" stroke="none" stroke-width="1" fill="none" fill-rule="evenodd" sketch:type="MSPage">
        <g id="Macbook__ipad__iphone" sketch:type="MSLayerGroup" transform="translate(24.000000, 35.000000)" stroke="#8492A5">
            <g id="Page-1" sketch:type="MSShapeGroup">
                <g id="Laptop">
                    <path d="M594,0 L98,0 C84.50415,0 73,11.0738184 73,24.7901127 L73,351.027995 L619,351.027985 L619,24.7901127 C618.999971,11.0728209 607.537479,0 594,0 L594,0 Z" id="bezel" stroke-width="2" fill="#FEFEFE"></path>
                    <circle id="webcam" stroke-width="2" cx="347" cy="19" r="4"></circle>
                    <g id="bottom" transform="translate(0.000000, 351.000000)">
                        <path d="M640.812,31.01 L51.288,31.01 C20.641,31.01 0,20.494 0,16.022 L0,2.428 C0,1.084 1.335,0 2.995,0 L689.104,0 C690.766,0 692.103,1.084 692.103,2.428 L692.103,16.557 C692.096,20.092 676.112,31.01 640.812,31.01 L640.812,31.01 Z" id="Shape" stroke-width="2" fill="#FDFDFD"></path>
                        <path d="M0.5,14.5 L690.242676,14.5" id="Line"></path>
                    </g>
                    <path d="M421,352 L421,355.087 C421,357.288 416.666719,357.952714 413.386719,357.952714 L278.815286,357.952714 C275.364286,357.952714 271,357.289 271,355.087 L271,352" id="touchpad" fill="#FFFFFF"></path>
                </g>
            </g>
        </g>
        <g id="fb" sketch:type="MSLayerGroup" transform="translate(119.000000, 73.000000)">
            <rect id="Rectangle-3" fill="#D8D8D8" sketch:type="MSShapeGroup" x="53" y="49" width="27" height="24"></rect>
            <rect id="Rectangle-6" fill="#D8D8D8" sketch:type="MSShapeGroup" x="87" y="49" width="61" height="12"></rect>
            <rect id="Rectangle-22" fill="#F5F5F5" sketch:type="MSShapeGroup" x="161" y="47" width="183" height="49"></rect>
            <rect id="Rectangle-23" fill="#EFEFEF" sketch:type="MSShapeGroup" x="357" y="47" width="90" height="100"></rect>
            <rect id="Rectangle-24" fill="#EFEFEF" sketch:type="MSShapeGroup" x="357" y="161" width="90" height="100"></rect>
            <rect id="Rectangle-26" fill="#F5F5F5" sketch:type="MSShapeGroup" x="161" y="138" width="183" height="93"></rect>
            <rect id="Rectangle-7" fill="#D8D8D8" sketch:type="MSShapeGroup" x="87" y="67" width="61" height="6"></rect>
            <rect id="Rectangle-25" fill="#D8D8D8" sketch:type="MSShapeGroup" x="161" y="105" width="27" height="24"></rect>
            <rect id="Rectangle-23" fill="#D8D8D8" sketch:type="MSShapeGroup" x="195" y="105" width="61" height="12"></rect>
            <rect id="Rectangle-24" fill="#D8D8D8" sketch:type="MSShapeGroup" x="195" y="123" width="61" height="6"></rect>
            <rect id="Rectangle-30" fill="#F5F5F5" sketch:type="MSShapeGroup" x="161" y="278" width="183" height="14"></rect>
            <rect id="Rectangle-27" fill="#D8D8D8" sketch:type="MSShapeGroup" x="161" y="245" width="27" height="24"></rect>
            <rect id="Rectangle-28" fill="#D8D8D8" sketch:type="MSShapeGroup" x="195" y="245" width="30" height="12"></rect>
            <rect id="Rectangle-29" fill="#D8D8D8" sketch:type="MSShapeGroup" x="195" y="263" width="61" height="6"></rect>
            <rect id="Rectangle-2" fill="#D8D8D8" sketch:type="MSShapeGroup" x="0" y="0" width="502" height="30"></rect>
            <rect id="Rectangle-4" fill="#D8D8D8" sketch:type="MSShapeGroup" x="53" y="93" width="95" height="6"></rect>
            <rect id="Rectangle-5" fill="#D8D8D8" sketch:type="MSShapeGroup" x="53" y="109" width="95" height="3"></rect>
            <rect id="Rectangle-8" fill="#D8D8D8" sketch:type="MSShapeGroup" x="53" y="119" width="95" height="3"></rect>
            <rect id="Rectangle-9" fill="#D8D8D8" sketch:type="MSShapeGroup" x="53" y="130" width="56" height="2"></rect>
            <rect id="Rectangle-11" fill="#D8D8D8" sketch:type="MSShapeGroup" x="116" y="130" width="32" height="2"></rect>
            <rect id="Rectangle-10" fill="#D8D8D8" sketch:type="MSShapeGroup" x="53" y="119" width="95" height="3"></rect>
            <rect id="Rectangle-21" fill="#D8D8D8" sketch:type="MSShapeGroup" x="53" y="193" width="95" height="6"></rect>
            <rect id="Rectangle-18" fill="#D8D8D8" sketch:type="MSShapeGroup" x="53" y="209" width="95" height="3"></rect>
            <rect id="Rectangle-19" fill="#D8D8D8" sketch:type="MSShapeGroup" x="53" y="230" width="56" height="2"></rect>
            <rect id="Rectangle-20" fill="#D8D8D8" sketch:type="MSShapeGroup" x="53" y="219" width="95" height="3"></rect>
            <rect id="Rectangle-16" fill="#D8D8D8" sketch:type="MSShapeGroup" x="53" y="170" width="56" height="2"></rect>
            <rect id="Rectangle-14" fill="#D8D8D8" sketch:type="MSShapeGroup" x="116" y="170" width="32" height="2"></rect>
            <rect id="Rectangle-15" fill="#D8D8D8" sketch:type="MSShapeGroup" x="53" y="159" width="95" height="3"></rect>
            <rect id="Rectangle-12" fill="#D8D8D8" sketch:type="MSShapeGroup" x="53" y="149" width="65" height="3"></rect>
            <rect id="Rectangle-13" fill="#D8D8D8" sketch:type="MSShapeGroup" x="123" y="149" width="11" height="3"></rect>
            <rect id="Rectangle-17" fill="#D8D8D8" sketch:type="MSShapeGroup" x="137" y="149" width="11" height="3"></rect>
        </g>
        <rect id="screen" stroke="#8492A5" opacity="0.501865672" sketch:type="MSShapeGroup" x="119" y="74" width="501.073853" height="292.009"></rect>
    </g>
</svg>